<svg width="17" height="20" viewBox="0 0 17 20" fill="none" xmlns="http://www.w3.org/2000/svg">
<g clip-path="url(#clip0_212_190)">
<path d="M13.1185 16.0808C12.5583 15.5843 11.8188 15.3661 11.0893 15.4822L7.37267 16.0728L6.31752 11.5026C6.04679 10.3279 5.45695 9.26613 4.61186 8.43212C4.11247 7.93899 3.53967 7.54236 2.91788 7.25297C3.56419 6.78097 3.88826 5.92329 3.66458 5.09123L3.22591 3.45965C2.94122 2.40096 1.87623 1.77871 0.851416 2.07299C0.233841 2.25027 -0.128998 2.91365 0.0425299 3.55184L1.0885 7.44215C1.09351 7.46073 3.12363 16.2331 3.12363 16.2331C3.03924 16.4459 2.99234 16.6785 2.99234 16.9224C2.99234 17.3903 3.16391 17.8175 3.44525 18.1407V18.3949C3.44525 19.2799 4.1421 20 4.9986 20H12.4466C13.3031 20 14 19.2799 14 18.3949V18.0623C14 17.2996 13.6787 16.5774 13.1185 16.0808ZM1.0795 2.92118C1.17554 2.89365 1.27219 2.88044 1.36732 2.88044C1.83883 2.88044 2.27281 3.20347 2.40501 3.69528L2.84367 5.32687C3.00256 5.91786 2.66656 6.53228 2.09456 6.69651L1.79538 6.78239L0.863438 3.3162C0.817574 3.14576 0.914555 2.96852 1.0795 2.92118ZM4.0233 9.0687C4.7494 9.78523 5.25613 10.6974 5.48876 11.7067L6.52782 16.207L6.38947 16.229C6.12484 15.5663 5.49307 15.0986 4.75731 15.0986C4.40649 15.0986 4.07958 15.2053 3.80449 15.3884L2.06512 7.85243C2.79482 8.10161 3.46262 8.51502 4.0233 9.0687ZM3.84425 16.9223C3.84425 16.4021 4.25385 15.9789 4.75731 15.9789C5.26077 15.9789 5.67037 16.4021 5.67037 16.9223C5.67037 17.4426 5.26077 17.8658 4.75731 17.8658C4.25385 17.8658 3.84425 17.4426 3.84425 16.9223ZM13.1481 18.3948C13.1481 18.7945 12.8334 19.1196 12.4466 19.1196H4.99865C4.71741 19.1196 4.47488 18.9473 4.36318 18.6997C4.49003 18.7297 4.62185 18.7461 4.75735 18.7461C5.67264 18.7461 6.42719 18.0225 6.5139 17.0999L11.2189 16.3522C11.7021 16.2753 12.1925 16.4199 12.5638 16.749C12.9351 17.0781 13.1481 17.5568 13.1481 18.0622V18.3948Z" fill="#888888"/>
<path d="M16.8518 7.02759L15.9856 3.67126C15.3193 1.08994 12.5708 -0.494317 9.85873 0.139702C8.54493 0.446884 7.43534 1.22261 6.73452 2.32398C6.03375 3.42539 5.82547 4.72059 6.14822 5.97108L7.0144 9.32741C7.33715 10.5778 8.15218 11.6339 9.30936 12.3009C10.111 12.7629 11.0102 13 11.9239 13C12.3293 13 12.7375 12.9533 13.1413 12.8589C14.4551 12.5518 15.5647 11.7761 16.2655 10.6746C16.9662 9.57328 17.1745 8.27807 16.8518 7.02759ZM15.4918 10.2287C14.9162 11.1334 14.0047 11.7707 12.9256 12.0229C10.6979 12.5437 8.44011 11.2425 7.89285 9.12204L7.02667 5.76572C6.7616 4.73858 6.9326 3.67461 7.5083 2.7699C8.08395 1.86519 8.99536 1.22797 10.0745 0.975687C10.4065 0.898067 10.7392 0.860907 11.0668 0.860907C12.9372 0.860907 14.6416 2.07222 15.1072 3.87657L15.9734 7.2329C16.2385 8.26009 16.0675 9.32401 15.4918 10.2287Z" fill="#888888"/>
</g>
<defs>
<clipPath id="clip0_212_190">
<rect width="17" height="20" fill="white"/>
</clipPath>
</defs>
</svg>
