<svg width="12" height="24" viewBox="0 0 12 24" fill="none" xmlns="http://www.w3.org/2000/svg">
<g clip-path="url(#clip0_212_188)">
<path fill-rule="evenodd" clip-rule="evenodd" d="M8.39644 21.2514C8.39644 22.558 7.33723 23.6186 6.02934 23.6186C4.72276 23.6186 3.66223 22.558 3.66223 21.2514V2.68303C3.66223 1.37645 4.72276 0.315918 6.02934 0.315918C7.33723 0.315918 8.39644 1.37645 8.39644 2.68303V21.2514Z" fill="#888888"/>
<path fill-rule="evenodd" clip-rule="evenodd" d="M11.1116 11.8918C11.1116 14.7497 8.79583 17.0668 5.93662 17.0668C3.07873 17.0668 0.762939 14.7497 0.762939 11.8918C0.762939 9.03397 3.07873 6.71686 5.93662 6.71686C8.79583 6.71686 11.1116 9.03397 11.1116 11.8918Z" fill="white"/>
<path fill-rule="evenodd" clip-rule="evenodd" d="M11.1116 11.8918C11.1116 14.7497 8.79583 17.0668 5.93662 17.0668C3.07873 17.0668 0.762939 14.7497 0.762939 11.8918C0.762939 9.03397 3.07873 6.71686 5.93662 6.71686C8.79583 6.71686 11.1116 9.03397 11.1116 11.8918Z" stroke="#888888"/>
</g>
<defs>
<clipPath id="clip0_212_188">
<rect width="12" height="24" fill="white"/>
</clipPath>
</defs>
</svg>
