<svg width="17" height="23" viewBox="0 0 17 23" fill="none" xmlns="http://www.w3.org/2000/svg">
<g clip-path="url(#clip0_212_189)">
<path fill-rule="evenodd" clip-rule="evenodd" d="M2.37854 21.8538C2.37854 22.4276 2.91995 22.8934 3.587 22.8934C4.25534 22.8934 4.79675 22.4276 4.79675 21.8538V21.6541H2.37854V21.8538Z" fill="#888888"/>
<path fill-rule="evenodd" clip-rule="evenodd" d="M11.8492 21.8538C11.8492 22.4276 12.3906 22.8934 13.059 22.8934C13.7273 22.8934 14.2687 22.4276 14.2687 21.8538V21.6541H11.8492V21.8538Z" fill="#888888"/>
<path fill-rule="evenodd" clip-rule="evenodd" d="M6.13842 6.5864V2.01004H6.13713C6.30551 1.49076 6.81583 1.11113 7.42459 1.11113H9.65629C10.2651 1.11113 10.7728 1.49076 10.9425 2.01004H10.9373V6.5864H12.4243V2.01004H12.4294C12.3945 0.945307 11.3855 0.0911255 10.1395 0.0911255H6.94017C5.69416 0.0911255 4.68516 0.945307 4.65149 2.01004V6.5864H6.13842Z" fill="#888888"/>
<path fill-rule="evenodd" clip-rule="evenodd" d="M15.3999 5.56097H1.54862C0.693759 5.56097 -0.000488281 6.1566 -0.000488281 6.89188V11.5315H16.9296H16.9464V6.89188C16.9464 6.1566 16.2548 5.56097 15.3999 5.56097ZM15.3999 6.65188C15.5385 6.65188 15.6512 6.75988 15.6512 6.89188V10.4406H1.29475V6.89188C1.29475 6.75988 1.40873 6.65188 1.54862 6.65188H15.3999Z" fill="#888888"/>
<path fill-rule="evenodd" clip-rule="evenodd" d="M16.9468 12.5523H16.9377V12.5697H0.0089446L-0.00012207 20.3228C-0.00012207 21.0581 0.69283 21.6548 1.54769 21.6548H15.4003C16.2552 21.6548 16.9468 21.0581 16.9468 20.3228V12.5523ZM15.6516 13.6606V20.3228C15.6516 20.4559 15.5389 20.5639 15.4003 20.5639H1.54769C1.4091 20.5639 1.29512 20.4559 1.29512 20.3239L1.30289 13.6606H15.6516Z" fill="#888888"/>
</g>
<defs>
<clipPath id="clip0_212_189">
<rect width="17" height="23" fill="white"/>
</clipPath>
</defs>
</svg>
