<svg width="20" height="22" viewBox="0 0 20 22" fill="none" xmlns="http://www.w3.org/2000/svg">
<g clip-path="url(#clip0_212_184)">
<path fill-rule="evenodd" clip-rule="evenodd" d="M15.108 5.39598V8.54498C15.0888 9.57162 14.9037 10.5884 14.56 11.556C14.2517 12.5566 13.6677 13.45 12.875 14.134L18.125 16.734L18.425 16.892C18.6537 16.9916 18.8583 17.1393 19.025 17.325C19.2098 17.4998 19.3177 17.7407 19.325 17.995V19.883C19.3288 20.2145 19.1995 20.5336 18.966 20.769C18.7482 21.0081 18.4394 21.1436 18.116 21.142H1.20799C0.884602 21.1437 0.575662 21.0082 0.357992 20.769C0.124335 20.5338 -0.00501876 20.2145 -0.00100807 19.883V17.991C0.0203995 17.7375 0.142937 17.5032 0.338992 17.341C0.499935 17.1729 0.677133 17.0212 0.867992 16.888C0.972775 16.8186 1.08739 16.7653 1.20799 16.73L6.49599 14.093C5.69894 13.401 5.11029 12.5007 4.79599 11.493C4.44706 10.5466 4.25552 9.54934 4.22899 8.54098V5.39598C4.31333 4.18822 4.94689 3.08585 5.94799 2.40498C6.97258 1.50602 8.28503 1.00339 9.64799 0.987976C11.019 1.00355 12.3399 1.50575 13.375 2.40498C14.3823 3.08203 15.0216 4.18535 15.108 5.39598ZM6.81699 3.30998C6.06043 3.75565 5.55164 4.52529 5.43799 5.39598V8.54498C5.46343 9.38661 5.62938 10.2181 5.92899 11.005C6.1786 11.8194 6.64942 12.5485 7.28899 13.111C7.60911 13.4067 7.76445 13.8403 7.70499 14.272C7.67918 14.6962 7.41593 15.0694 7.02499 15.236L1.69899 17.872C1.40354 17.9829 1.20788 18.2654 1.20799 18.581V19.881H18.13V18.62C18.1678 18.285 17.9614 17.9705 17.639 17.872H17.601L12.351 15.272C11.9628 15.0832 11.7039 14.7025 11.671 14.272C11.6086 13.8437 11.7817 13.4149 12.124 13.15C12.7512 12.5763 13.2086 11.8412 13.446 11.025C13.7267 10.2273 13.8795 9.39034 13.899 8.54498V5.39598C13.7888 4.52916 13.2877 3.76056 12.539 3.30998C10.8947 1.89324 8.46124 1.89324 6.81699 3.30998Z" fill="#888888"/>
</g>
<defs>
<clipPath id="clip0_212_184">
<rect width="20" height="22" fill="white"/>
</clipPath>
</defs>
</svg>
