<svg width="21" height="18" viewBox="0 0 21 18" fill="none" xmlns="http://www.w3.org/2000/svg">
<g clip-path="url(#clip0_212_185)">
<rect width="21" height="18" fill="white"/>
<path fill-rule="evenodd" clip-rule="evenodd" d="M18.7826 7.58978H15.8713C15.8514 7.59091 15.8304 7.59653 15.8117 7.59653H3.97977C3.96982 7.59653 3.95988 7.58978 3.94772 7.58978H1.64656V7.67978C1.10277 7.91041 0.71814 8.45716 0.71814 9.09616V16.2568C0.71814 17.1051 1.39345 17.7902 2.22572 17.7902H19.0368C19.8702 17.7902 20.5444 17.1051 20.5444 16.2568V11.6004C20.5444 10.6464 19.3562 8.55841 18.7826 7.58978ZM17.9603 9.05228C19.0523 10.9997 19.1053 11.5847 19.1075 11.6004V16.2568C19.1075 16.2973 19.0777 16.3277 19.0368 16.3277H2.22572C2.18593 16.3277 2.15498 16.2973 2.15498 16.2568V9.09616C2.15498 9.07703 2.16272 9.06241 2.17045 9.05228H3.73993L3.76203 9.05903H3.97977H15.8117C15.857 9.05903 15.9045 9.05678 15.952 9.05228H17.9603Z" fill="#888888"/>
<path fill-rule="evenodd" clip-rule="evenodd" d="M7.6316 12.1317C7.6316 12.3792 7.43486 12.5783 7.19171 12.5783H4.67171C4.42855 12.5783 4.23181 12.3792 4.23181 12.1317V12.0383C4.23181 11.7908 4.42855 11.5905 4.67171 11.5905H7.19171C7.43486 11.5905 7.6316 11.7908 7.6316 12.0383V12.1317Z" fill="#888888"/>
<path fill-rule="evenodd" clip-rule="evenodd" d="M3.94776 7.58979C3.47803 7.57067 3.10003 7.18479 3.10003 6.70217V2.05367C3.10003 1.55979 3.49461 1.15817 3.97982 1.15817H13.285C13.7724 1.15817 14.2411 1.54067 14.4632 2.05367L16.6041 6.52667C16.8738 7.12742 16.3444 7.55604 15.8713 7.58979H18.7826C18.7771 7.58079 18.7704 7.57067 18.7649 7.56167H18.7461L15.5342 1.49679C15.164 0.636174 14.3781 0.000549316 13.5647 0.000549316H3.11771C2.30645 0.000549316 1.64661 0.671049 1.64661 1.49679V7.58979H3.94776Z" fill="#888888"/>
</g>
<defs>
<clipPath id="clip0_212_185">
<rect width="21" height="18" fill="white"/>
</clipPath>
</defs>
</svg>
